<svg xmlns:dc="http://purl.org/dc/elements/1.1/" xmlns:cc="http://creativecommons.org/ns#" xmlns:rdf="http://www.w3.org/1999/02/22-rdf-syntax-ns#" xmlns:svg="http://www.w3.org/2000/svg" xmlns="http://www.w3.org/2000/svg" xmlns:sodipodi="http://sodipodi.sourceforge.net/DTD/sodipodi-0.dtd" xmlns:inkscape="http://www.inkscape.org/namespaces/inkscape" version="1.1" x="0px" y="0px" viewBox="0 0 100 125"><g transform="translate(0,-952.36218)"><path style="text-indent:0;text-transform:none;direction:ltr;block-progression:tb;baseline-shift:baseline;color:#000000;enable-background:accumulate;" d="m 83.97717,957.34669 c -0.5086,0.011 -1.05,0.3144 -1.3126,0.53125 l -9,8 c -0.4164,0.37778 -0.6614,0.93776 -0.6562,1.5 l 0,9.15625 -2.875,2.875 c -6.9169,-6.24492 -16.0874,-10.03125 -26.125,-10.03125 -21.5154,0 -39.0000003,17.4845 -39.0000003,38.99996 0,21.5153 17.4846003,39 39.0000003,39 21.5154,0 39,-17.4847 39,-39 0,-10.04496 -3.8094,-19.20632 -10.0625,-26.12496 l 2.875,-2.875 9.1875,0 c 0.5669,-0.003 1.1279,-0.25973 1.5,-0.6875 l 8,-9 c 0.499,-0.57403 0.6264,-1.44452 0.3126,-2.13742 -0.3138,-0.6929 -1.052,-1.17146 -1.8126,-1.17508 l -7,0 0,-7 c 0.017,-1.06802 -0.9632,-2.04794 -2.0312,-2.03125 z m -1.9688,6.46875 0,4.5625 c 1e-4,1.04717 0.9528,1.9999 2,2 l 4.5312,0 -4.4374,5 -7.0938,0 0,-7.125 z m -38,9.5625 c 8.9596,0 17.1265,3.32178 23.3125,8.84375 l -4.2813,4.28125 c -5.0959,-4.43937 -11.7566,-7.125 -19.0312,-7.125 -15.9925,0 -29,13.0073 -29,28.99996 0,15.9923 13.0075,29 29,29 15.9926,0 29,-13.0077 29,-29 0,-7.2818 -2.7089,-13.93326 -7.1562,-19.03121 l 4.2812,-4.28125 c 5.5144,6.18431 8.875,14.35971 8.875,23.31246 0,19.3535 -15.6464,35 -35,35 -19.3536,0 -35.0000003,-15.6465 -35.0000003,-35 0,-19.35366 15.6464003,-34.99996 35.0000003,-34.99996 z m 0,10 c 6.1954,0 11.8561,2.21989 16.2188,5.9375 l -5,5 c -3.0798,-2.46253 -6.9825,-3.9375 -11.2188,-3.9375 -9.9175,0 -18,8.0826 -18,17.99996 0,9.9174 8.0825,18 18,18 9.9175,0 18,-8.0826 18,-18 0,-4.2419 -1.5002,-8.137 -3.9688,-11.21871 l 5,-5 c 3.7229,4.364 5.9688,10.01841 5.9688,16.21871 0,13.8305 -11.1692,25 -25,25 -13.8307,0 -25,-11.1695 -25,-25 0,-13.83086 11.1693,-24.99996 25,-24.99996 z m 0,11 c 3.1508,0 6.0405,1.03746 8.375,2.78125 l -5.8125,5.81251 c -0.7829,-0.3775 -1.6422,-0.5938 -2.5625,-0.5938 -3.29,0 -6,2.71 -6,6 0,3.29 2.71,6 6,6 3.2899,0 6,-2.7099 6,-6 0,-0.9253 -0.2124,-1.8075 -0.5938,-2.5937 l 5.8126,-5.81251 c 1.7528,2.33801 2.7812,5.24651 2.7812,8.40621 0,7.7556 -6.2443,14 -14,14 -7.7557,0 -14,-6.2444 -14,-14 0,-7.7556 6.2443,-13.99996 14,-13.99996 z m 1.125,15.62496 c -0.043,0.03 -0.079,0.068 -0.125,0.094 0.043,-0.03 0.085,-0.061 0.125,-0.094 z" fill="#000000" fill-opacity="1" stroke="none" marker="none" visibility="visible" display="inline" overflow="visible"/></g></svg>