<svg xmlns:dc="http://purl.org/dc/elements/1.1/" xmlns:cc="http://creativecommons.org/ns#" xmlns:rdf="http://www.w3.org/1999/02/22-rdf-syntax-ns#" xmlns:svg="http://www.w3.org/2000/svg" xmlns="http://www.w3.org/2000/svg" xmlns:sodipodi="http://sodipodi.sourceforge.net/DTD/sodipodi-0.dtd" xmlns:inkscape="http://www.inkscape.org/namespaces/inkscape" version="1.1" x="0px" y="0px" viewBox="0 0 100 125"><g transform="translate(0,-952.36218)"><path style="text-indent:0;text-transform:none;direction:ltr;block-progression:tb;baseline-shift:baseline;color:#000000;enable-background:accumulate;" d="m 50,956.36217 c -1.1046,0 -2,0.8954 -2,2 l 0,8 c 0,1.1046 0.8954,2 2,2 1.1046,0 2,-0.8954 2,-2 l 0,-8 c 0,-1.1046 -0.8954,-2 -2,-2 z m -28.2812,11.71875 c -0.5119,0 -1.0157,0.20315 -1.4063,0.59375 -0.781,0.781 -0.781,2.0314 0,2.8125 l 5.6563,5.65625 c 0.7808,0.781 2.0314,0.781 2.8124,0 0.7811,-0.781 0.7811,-2.0314 0,-2.8125 l -5.6562,-5.65625 c -0.3905,-0.3906 -0.8945,-0.59375 -1.4062,-0.59375 z m 56.5624,0 c -0.5117,0 -1.0156,0.20315 -1.4062,0.59375 l -5.6562,5.65625 c -0.7811,0.7811 -0.7811,2.0315 0,2.8125 0.781,0.781 2.0315,0.781 2.8124,0 l 5.6563,-5.65625 c 0.781,-0.7811 0.781,-2.0315 0,-2.8125 -0.3906,-0.3906 -0.8943,-0.59375 -1.4063,-0.59375 z M 50,972.36217 c -13.2296,0 -26,10.28529 -26,24.84372 0,9.18111 3.5737,15.01581 6.875,19.68751 3.3013,4.6717 6.125,8.1036 6.125,13.4688 l 0,12 c 0,3.3944 2.8143,6 6,6 l 14,0 c 3.1857,0 6,-2.6056 6,-6 l 0,-12 c 0,-5.3652 2.8237,-8.7971 6.125,-13.4688 C 72.4263,1012.2217 76,1006.387 76,997.20589 76,982.64746 63.2296,972.36217 50,972.36217 z m 0,4 c 11.1608,0 22,8.63761 22,20.84372 0,8.18281 -2.9263,12.84861 -6.125,17.37501 -2.8723,4.0645 -6.1151,8.0875 -6.75,13.7813 l -18.25,0 c -0.6349,-5.6938 -3.8777,-9.7168 -6.75,-13.7813 C 30.9263,1010.0545 28,1005.3887 28,997.20589 28,984.99978 38.8392,976.36217 50,976.36217 z m -5.875,4.09375 c -0.274,10e-4 -0.5533,0.0387 -0.8438,0.125 -6.1812,2.33091 -10.7868,7.75495 -11.9687,14.40627 -0.1882,1.0308 0.5941,2.1243 1.625,2.3125 1.0308,0.1882 2.1243,-0.5629 2.3125,-1.5938 0.9335,-5.25367 4.5956,-9.56873 9.4688,-11.40622 0.8689,-0.32306 1.4432,-1.30594 1.2812,-2.21875 -0.3318,-1.20346 -1.0531,-1.62928 -1.875,-1.625 z M 10,996.36219 c -1.1046,0 -2,0.8954 -2,2 0,1.1046 0.8954,2.00001 2,2.00001 l 8,0 c 1.1046,0 2,-0.89541 2,-2.00001 0,-1.1046 -0.8954,-2 -2,-2 l -8,0 z m 72,0 c -1.1046,0 -2,0.8954 -2,2 0,1.1046 0.8954,2.00001 2,2.00001 l 8,0 c 1.1046,0 2,-0.89541 2,-2.00001 0,-1.1046 -0.8954,-2 -2,-2 l -8,0 z m -41,36.00001 18,0 0,4 -18,0 0,-4 z m 0,8 18,0 0,2 c 0,1.2018 -0.9647,2 -2,2 l -14,0 c -1.0353,0 -2,-0.7982 -2,-2 l 0,-2 z" fill="#000000" fill-opacity="1" stroke="none" marker="none" visibility="visible" display="inline" overflow="visible"/></g></svg>