<svg xmlns="http://www.w3.org/2000/svg" xmlns:xlink="http://www.w3.org/1999/xlink" version="1.1" x="0px" y="0px" viewBox="0 0 512 640" enable-background="new 0 0 512 512" xml:space="preserve"><g><path d="M510,98.2l-14.3-81L2,104l11.5,65.1v284.6c0,22.7,18.4,41.1,41.1,41.1h411c22.7,0,41.1-18.4,41.1-41.1V166H124.1L510,98.2z    M482.4,36.2l8.6,48.6l-61.5,10.8l40-57.1L482.4,36.2z M446.6,42.5l-40,57.1l-41.8,7.4l40-57.1L446.6,42.5z M381.8,53.9l-40,57.1   l-41.8,7.4l40-57.1L381.8,53.9z M317.1,65.3l-40,57.1l-41.8,7.4l40-57.1L317.1,65.3z M252.4,76.7l-40,57.1l-41.8,7.4l40-57.1   L252.4,76.7z M187.6,88l-40,57.1l-41.8,7.4l40-57.1L187.6,88z M122.9,99.4l-40,57.1l-41.8,7.4l40-57.1L122.9,99.4z M21.1,117.3   l37.1-6.5l-30.6,43.6L21.1,117.3z M490.3,453.7c0,13.6-11.1,24.7-24.7,24.7h-411c-13.6,0-24.7-11.1-24.7-24.7V248.2h460.4V453.7z    M490.3,182.4v49.3H29.9v-49.2l0.7-0.1H490.3z"/><rect x="87.5" y="297.5" width="345.3" height="16.4"/><rect x="87.5" y="363.3" width="345.3" height="16.4"/><rect x="87.5" y="429" width="115.1" height="16.4"/><rect x="367" y="429" width="65.8" height="16.4"/></g><text x="0" y="527" fill="#000000" font-size="5px" font-weight="bold" font-family="'Helvetica Neue', Helvetica, Arial-Unicode, Arial, Sans-serif">Created by Icon Fair</text><text x="0" y="532" fill="#000000" font-size="5px" font-weight="bold" font-family="'Helvetica Neue', Helvetica, Arial-Unicode, Arial, Sans-serif">from the Noun Project</text></svg>